<svg width="50" height="50" viewBox="0 0 50 50" fill="none" xmlns="http://www.w3.org/2000/svg">
<path d="M31.1875 26.5625H29.5833H19.8541V32.4583H22.5833H31.1875C33.1666 32.4583 34.7916 31.125 34.7916 29.5C34.7916 27.875 33.1666 26.5625 31.1875 26.5625Z" fill="white"/>
<path d="M25 4.16666C13.5 4.16666 4.16663 13.5 4.16663 25C4.16663 36.5 13.5 45.8333 25 45.8333C36.5 45.8333 45.8333 36.5 45.8333 25C45.8333 13.5 36.5 4.16666 25 4.16666ZM31.1875 35.5833H27.75V38.5417C27.75 39.3958 27.0416 40.1042 26.1875 40.1042C25.3333 40.1042 24.625 39.3958 24.625 38.5417V35.5833H22.5833H22.1041V38.5417C22.1041 39.3958 21.3958 40.1042 20.5416 40.1042C19.6875 40.1042 18.9791 39.3958 18.9791 38.5417V35.5833H18.2916H14.6875C13.8333 35.5833 13.125 34.875 13.125 34.0208C13.125 33.1667 13.8333 32.4583 14.6875 32.4583H16.7291V25V17.5417H14.6875C13.8333 17.5417 13.125 16.8333 13.125 15.9792C13.125 15.125 13.8333 14.4167 14.6875 14.4167H18.2916H18.9791V11.4583C18.9791 10.6042 19.6875 9.89582 20.5416 9.89582C21.3958 9.89582 22.1041 10.6042 22.1041 11.4583V14.4167H22.5833H24.625V11.4583C24.625 10.6042 25.3333 9.89582 26.1875 9.89582C27.0416 9.89582 27.75 10.6042 27.75 11.4583V14.4167H29.5833C32.8125 14.4167 35.6666 17.25 35.6666 20.5C35.6666 21.8958 35.1666 23.1667 34.375 24.2083C36.4791 25.2292 37.9166 27.2292 37.9166 29.5417C37.9166 32.8542 34.8958 35.5833 31.1875 35.5833Z" fill="white"/>
<path d="M32.5416 20.4792C32.5416 19.1042 31.25 17.5208 29.5833 17.5208H22.5833H19.8541V23.4167H29.5833C31.2083 23.4375 32.5416 22.1042 32.5416 20.4792Z" fill="white"/>
</svg>
