<svg width="50" height="50" viewBox="0 0 50 50" fill="none" xmlns="http://www.w3.org/2000/svg">
<path d="M14.375 18.9583L24.3124 14.5417C24.7499 14.3542 25.25 14.3542 25.6666 14.5417L35.6042 18.9583C36.4792 19.3542 37.2916 18.2917 36.6874 17.5417L26.2708 4.8125C25.5624 3.9375 24.3958 3.9375 23.6874 4.8125L13.2708 17.5417C12.6874 18.2917 13.5 19.3542 14.375 18.9583Z" fill="white"/>
<path d="M14.375 31.0417L24.3333 35.4583C24.7708 35.6458 25.2708 35.6458 25.6875 35.4583L35.6458 31.0417C36.5208 30.6458 37.3333 31.7083 36.7291 32.4583L26.3125 45.1875C25.6041 46.0625 24.4375 46.0625 23.7292 45.1875L13.3125 32.4583C12.6875 31.7083 13.4792 30.6458 14.375 31.0417Z" fill="white"/>
<path d="M24.5417 19.7708L15.9375 24.0625C15.1667 24.4375 15.1667 25.5417 15.9375 25.9167L24.5417 30.2083C24.8333 30.3542 25.1874 30.3542 25.4791 30.2083L34.0833 25.9167C34.8541 25.5417 34.8541 24.4375 34.0833 24.0625L25.4791 19.7708C25.1666 19.625 24.8333 19.625 24.5417 19.7708Z" fill="white"/>
</svg>
