<svg width="50" height="50" viewBox="0 0 50 50" fill="none" xmlns="http://www.w3.org/2000/svg">
<path d="M25 4.16666C13.5 4.16666 4.16663 13.5 4.16663 25C4.16663 36.5 13.5 45.8333 25 45.8333C36.5 45.8333 45.8333 36.5 45.8333 25C45.8333 13.5 36.5 4.16666 25 4.16666ZM32.9583 34C32.7708 35 31.9166 35.7083 30.9166 35.7083H19.3749C17.9999 35.7083 17 34.375 17.375 33.0625L19.1249 26.9167L15.5625 27.625C15.4583 27.6458 15.3541 27.6458 15.25 27.6458C14.5208 27.6458 13.875 27.125 13.7291 26.3958C13.5625 25.5417 14.1041 24.7292 14.9583 24.5625L20.1041 23.5417L22.8333 14.0208C22.9583 13.5833 23.375 13.2708 23.8333 13.2708H26.6666C28.0416 13.2708 29.0416 14.5625 28.6874 15.8958L26.9999 22.1667L31.0208 21.3542C31.8542 21.1875 32.6874 21.7291 32.8541 22.5833C33.0208 23.4375 32.4791 24.25 31.6249 24.4167L26.0833 25.5208L24.9375 29.7917H31.25C32.5416 29.7917 33.5208 30.9583 33.2916 32.25L32.9583 34Z" fill="white"/>
</svg>
