<svg width="50" height="50" viewBox="0 0 50 50" fill="none" xmlns="http://www.w3.org/2000/svg">
<path d="M41.6667 7.29166H11.4584C10.8125 7.29166 10.1875 7.60416 9.79171 8.12499L6.66671 12.2917C5.64588 13.6667 6.62502 15.625 8.33335 15.625H38.5417C39.1875 15.625 39.8125 15.3125 40.2083 14.7917L43.3333 10.625C44.3542 9.24999 43.375 7.29166 41.6667 7.29166Z" fill="white"/>
<path d="M8.33335 20.8333H38.5417C39.1875 20.8333 39.8125 21.1458 40.2083 21.6667L43.3333 25.8333C44.3542 27.2083 43.375 29.1667 41.6667 29.1667H11.4584C10.8125 29.1667 10.1875 28.8542 9.79171 28.3333L6.66671 24.1667C5.64588 22.7917 6.62502 20.8333 8.33335 20.8333Z" fill="white"/>
<path d="M41.6667 34.375H11.4584C10.8125 34.375 10.1875 34.6875 9.79171 35.2083L6.66671 39.375C5.64588 40.75 6.62502 42.7083 8.33335 42.7083H38.5417C39.1875 42.7083 39.8125 42.3958 40.2083 41.875L43.3333 37.7083C44.3542 36.3333 43.375 34.375 41.6667 34.375Z" fill="white"/>
</svg>
