<svg width="50" height="50" viewBox="0 0 50 50" fill="none" xmlns="http://www.w3.org/2000/svg">
<path d="M45.2292 20.625L40.2292 10.5833C39.25 8.60417 36.6459 7 34.4375 7H15.5625C13.3542 7 10.75 8.60417 9.77088 10.5833L4.77086 20.625C3.56253 23.0417 4.2292 26.4792 6.20837 28.2917L20.6459 41.3958C23.0417 43.5625 26.9375 43.5625 29.3334 41.3958L43.7709 28.2917C45.7709 26.4792 46.4376 23.0208 45.2292 20.625ZM33.3334 19.2708H26.5625V30.2083C26.5625 31.0625 25.8542 31.7708 25 31.7708C24.1459 31.7708 23.4375 31.0625 23.4375 30.2083V19.2708H16.6667C15.8125 19.2708 15.1042 18.5625 15.1042 17.7083C15.1042 16.8542 15.8125 16.1458 16.6667 16.1458H33.3334C34.1875 16.1458 34.8959 16.8542 34.8959 17.7083C34.8959 18.5625 34.1875 19.2708 33.3334 19.2708Z" fill="white"/>
</svg>
