<svg width="50" height="50" viewBox="0 0 50 50" fill="none" xmlns="http://www.w3.org/2000/svg">
<path d="M26.5625 30.25H27.0417C27.7292 30.25 28.3125 29.625 28.3125 28.8542C28.3125 27.875 28.0833 27.75 27.4167 27.5208L26.5625 27.2292V30.25Z" fill="white"/>
<path d="M25.0001 4.16666C13.5001 4.16666 4.16675 13.5 4.16675 25C4.16675 36.5 13.5001 45.8333 25.0001 45.8333C36.5001 45.8333 45.8334 36.5 45.8334 25C45.8334 13.5 36.5001 4.16666 25.0001 4.16666ZM15.7917 34.2083C16.3959 34.8125 16.3959 35.8125 15.7917 36.4167C15.4792 36.7292 15.0834 36.875 14.6876 36.875C14.2917 36.875 13.8959 36.7292 13.5834 36.4167C10.5417 33.375 8.85425 29.3125 8.85425 25C8.85425 20.6875 10.5417 16.625 13.5834 13.5833C14.1876 12.9791 15.1876 12.9791 15.7917 13.5833C16.3959 14.1875 16.3959 15.1875 15.7917 15.7917C13.3334 18.25 11.9792 21.5208 11.9792 25C11.9792 28.4792 13.3334 31.75 15.7917 34.2083ZM28.4376 24.5417C30.4376 25.25 31.4167 26.6458 31.4167 28.8333C31.4167 31.3333 29.4584 33.3542 27.0209 33.3542H26.5417V33.7292C26.5417 34.5833 25.8334 35.2917 24.9792 35.2917C24.1251 35.2917 23.4167 34.5833 23.4167 33.7292V33.3542H23.3542C20.7084 33.3542 18.5417 31.125 18.5417 28.3958C18.5417 27.5417 19.2501 26.8333 20.1042 26.8333C20.9584 26.8333 21.6667 27.5417 21.6667 28.3958C21.6667 29.4167 22.4167 30.2292 23.3542 30.2292H23.4167V26.1042L21.5417 25.4375C19.5417 24.7292 18.5626 23.3333 18.5626 21.1458C18.5626 18.6458 20.5209 16.625 22.9584 16.625H23.4376V16.25C23.4376 15.3958 24.1459 14.6875 25.0001 14.6875C25.8542 14.6875 26.5626 15.3958 26.5626 16.25V16.625H26.6251C29.2709 16.625 31.4376 18.8542 31.4376 21.5833C31.4376 22.4375 30.7292 23.1458 29.8751 23.1458C29.0209 23.1458 28.3126 22.4375 28.3126 21.5833C28.3126 20.5625 27.5626 19.75 26.6251 19.75H26.5626V23.875L28.4376 24.5417ZM36.4168 36.4167C36.1043 36.7292 35.7084 36.875 35.3126 36.875C34.9168 36.875 34.5209 36.7292 34.2084 36.4167C33.6043 35.8125 33.6043 34.8125 34.2084 34.2083C36.6668 31.75 38.0209 28.4792 38.0209 25C38.0209 21.5208 36.6668 18.25 34.2084 15.7917C33.6043 15.1875 33.6043 14.1875 34.2084 13.5833C34.8126 12.9791 35.8126 12.9791 36.4168 13.5833C39.4584 16.625 41.1459 20.6875 41.1459 25C41.1459 29.3125 39.4584 33.375 36.4168 36.4167Z" fill="white"/>
<path d="M21.7083 21.1667C21.7083 22.1458 21.9374 22.2708 22.6041 22.5L23.4582 22.7917V19.75H22.9791C22.2707 19.75 21.7083 20.3958 21.7083 21.1667Z" fill="white"/>
</svg>
