<svg width="50" height="50" viewBox="0 0 50 50" fill="none" xmlns="http://www.w3.org/2000/svg">
<path d="M11.375 4.16666H8.43741C6.49991 4.16666 5.52077 6.52082 6.89577 7.89582L18.8332 19.8333C22.2499 23.25 27.7707 23.25 31.1874 19.8333L43.125 7.89582C44.5 6.52082 43.5208 4.16666 41.5833 4.16666H38.6457C36.9166 4.16666 35.25 4.85416 34.0208 6.08332L26.5624 13.5417C25.7083 14.3958 24.3333 14.3958 23.4791 13.5417L16.0208 6.08332C14.7708 4.85416 13.1042 4.16666 11.375 4.16666Z" fill="white"/>
<path d="M11.375 45.7708H8.43741C6.49991 45.7708 5.52077 43.4167 6.89577 42.0417L18.8332 30.1042C22.2499 26.6875 27.7707 26.6875 31.1874 30.1042L43.125 42.0417C44.5 43.4167 43.5208 45.7708 41.5833 45.7708H38.6457C36.9166 45.7708 35.25 45.0833 34.0208 43.8542L26.5624 36.3958C25.7083 35.5417 24.3333 35.5417 23.4791 36.3958L16.0208 43.8542C14.7708 45.0833 13.1042 45.7708 11.375 45.7708Z" fill="white"/>
</svg>
