<svg width="244" height="191" viewBox="0 0 244 191" fill="none" xmlns="http://www.w3.org/2000/svg">
<g filter="url(#filter0_f_43_538)">
<path d="M128.598 186.079C121.202 185.687 113.64 184.784 105.976 183.372C91.1767 180.631 77.3798 176.185 65.0119 170.461C28.3092 153.438 4.26689 125.092 4.45074 96.4286C1.90194 73.339 10.9941 51.8538 10.9941 51.8538L26.1364 54.2104C49.8946 34.8061 90.3996 26.1736 133.612 34.1877C173.24 41.5333 205.739 61.1047 222.611 84.8545L238.105 87.2696C241.798 101.535 234.311 129.997 234.311 129.997C227.609 166.207 182.407 189.054 128.606 186.088L128.598 186.079Z" fill="url(#paint0_linear_43_538)"/>
<path d="M109.319 156.162C53.1454 145.758 11.3033 110.76 7.98569 74.1997C7.57621 69.5868 7.76841 64.9655 8.6208 60.361C11.1027 46.9652 18.8494 35.3911 30.365 26.2906C52.4183 8.8251 88.2854 0.401532 127.269 5.44899C130.47 5.86682 133.704 6.36823 136.947 6.96991C147.936 9.00895 158.382 11.9839 168.092 15.7361C197.29 27.001 219.895 45.2102 230.96 65.6926C237.403 77.5925 239.943 90.2613 237.637 102.78C236.584 108.446 234.595 113.785 231.77 118.749C214.087 149.878 163.847 166.257 109.311 156.162H109.319Z" fill="url(#paint1_linear_43_538)"/>
<path d="M162.451 31.3548L126.593 21.7279L127.269 5.45734C130.47 5.85846 133.704 6.36822 136.947 6.96991C147.936 9.00894 158.381 11.9839 168.092 15.7361L162.443 31.3548H162.451Z" fill="url(#paint2_radial_43_538)"/>
<path d="M128.598 186.079C121.202 185.687 113.64 184.784 105.976 183.372C91.1767 180.631 77.3798 176.185 65.0118 170.461L70.6192 144.279L80.3715 124.399C80.3715 124.399 99.2827 115.975 105.391 117.822C111.509 119.66 126.191 129.229 126.191 129.229L132.108 136.8L134.531 158.995L128.59 186.071L128.598 186.079Z" fill="url(#paint3_radial_43_538)"/>
<path d="M34.1338 76.2304C34.1338 76.2304 8.05248 74.9685 7.99399 74.1997C7.58451 69.5868 7.77671 64.9655 8.6291 60.361C11.111 46.9652 18.8577 35.3911 30.3733 26.2907L51.8166 36.7783L34.1422 76.222L34.1338 76.2304Z" fill="url(#paint4_radial_43_538)"/>
<path d="M231.779 118.749L209.307 105.964C209.307 105.964 192.577 95.267 194.223 94.3812C195.87 93.487 208.539 70.4726 208.539 70.4726L230.968 65.6926C237.411 77.5925 239.951 90.2613 237.645 102.78C236.592 108.446 234.603 113.785 231.779 118.749Z" fill="url(#paint5_radial_43_538)"/>
<path d="M212.215 95.1066C217.922 64.2834 182.882 31.9519 133.952 22.892C85.0218 13.8322 40.7294 31.4747 35.0222 62.2979C29.315 93.121 64.3544 125.453 113.285 134.512C162.215 143.572 206.507 125.93 212.215 95.1066Z" fill="url(#paint6_linear_43_538)"/>
<path d="M211.537 98.7716C216.869 69.977 181.525 39.2899 132.595 30.2301C83.6642 21.1702 39.6762 37.1683 34.3447 65.9629C29.0131 94.7574 64.3569 125.445 113.287 134.504C162.218 143.564 206.206 127.566 211.537 98.7716Z" fill="url(#paint7_radial_43_538)"/>
<path d="M79.2767 94.9912C79.4773 95.8185 79.8032 96.5957 80.2879 97.2977C85.3855 104.618 92.1628 111.111 100.678 114.195C109.01 117.212 122.105 117.053 129.425 111.329L134.398 95.7517C134.398 95.7517 114.417 82.1469 112.938 81.7458C111.458 81.3447 80.1291 77.1413 80.1291 77.1413C79.9452 79.9157 79.7614 82.6818 79.5775 85.4562C79.3853 88.4061 78.5497 92.0162 79.2767 94.9912Z" fill="url(#paint8_linear_43_538)"/>
<path d="M139.796 110.627L137.072 122.109L129.425 111.329L134.398 95.7517L139.796 110.627Z" fill="url(#paint9_linear_43_538)"/>
<path d="M162.952 101.877L161.582 113.083L137.072 122.109L139.796 110.627L162.952 101.877Z" fill="url(#paint10_linear_43_538)"/>
<path d="M172.162 80.2667C172.162 80.2667 172.613 97.0303 160.253 99.2949C160.253 99.2949 152.732 97.7823 150.225 95.0664C147.718 92.3505 146.155 81.8795 147.075 81.562C147.994 81.2444 172.162 80.2667 172.162 80.2667Z" fill="url(#paint11_linear_43_538)"/>
<path d="M95.5556 41.5667C95.5556 41.5667 136.896 48.6031 154.395 57.528C154.395 57.528 173.181 66.6118 172.162 80.2667C172.162 80.2667 169.12 93.1611 153.1 92.434L162.952 101.877L139.788 110.627L132.735 98.6097C132.735 98.6097 117.367 113.343 94.9037 98.5595C90.7755 95.8436 86.9565 93.8129 84.04 89.5343C78.4577 81.3363 79.8449 71.3668 83.5637 62.7176C84.6751 60.127 93.0653 41.1322 95.5556 41.5584V41.5667Z" fill="url(#paint12_linear_43_538)"/>
</g>
<defs>
<filter id="filter0_f_43_538" x="0" y="7.62939e-06" width="243.128" height="190.346" filterUnits="userSpaceOnUse" color-interpolation-filters="sRGB">
<feFlood flood-opacity="0" result="BackgroundImageFix"/>
<feBlend mode="normal" in="SourceGraphic" in2="BackgroundImageFix" result="shape"/>
<feGaussianBlur stdDeviation="2" result="effect1_foregroundBlur_43_538"/>
</filter>
<linearGradient id="paint0_linear_43_538" x1="55.249" y1="17.3862" x2="186.134" y2="184.851" gradientUnits="userSpaceOnUse">
<stop stop-color="#5A4737"/>
<stop offset="0.25" stop-color="#A89252"/>
<stop offset="0.46" stop-color="#F7F298"/>
<stop offset="0.64" stop-color="#A89252"/>
<stop offset="0.65" stop-color="#9D874E"/>
<stop offset="0.7" stop-color="#7C6843"/>
<stop offset="0.74" stop-color="#68543C"/>
<stop offset="0.77" stop-color="#614E3A"/>
<stop offset="0.8" stop-color="#6A573D"/>
<stop offset="0.84" stop-color="#846F45"/>
<stop offset="0.9" stop-color="#A89252"/>
<stop offset="1" stop-color="#CCB06F"/>
</linearGradient>
<linearGradient id="paint1_linear_43_538" x1="61.2667" y1="2.24641" x2="185.276" y2="160.914" gradientUnits="userSpaceOnUse">
<stop stop-color="#5A4737"/>
<stop offset="0.25" stop-color="#A89252"/>
<stop offset="0.46" stop-color="#F7F298"/>
<stop offset="0.64" stop-color="#A89252"/>
<stop offset="0.65" stop-color="#9D874E"/>
<stop offset="0.7" stop-color="#7C6843"/>
<stop offset="0.74" stop-color="#68543C"/>
<stop offset="0.77" stop-color="#614E3A"/>
<stop offset="0.8" stop-color="#6A573D"/>
<stop offset="0.84" stop-color="#846F45"/>
<stop offset="0.9" stop-color="#A89252"/>
<stop offset="1" stop-color="#CCB06F"/>
</linearGradient>
<radialGradient id="paint2_radial_43_538" cx="0" cy="0" r="1" gradientUnits="userSpaceOnUse" gradientTransform="translate(146.379 17.3195) rotate(51.99) scale(19.6717)">
<stop offset="0.2" stop-color="#272727"/>
<stop offset="0.48" stop-color="#232323"/>
<stop offset="0.71" stop-color="#191919"/>
<stop offset="0.93" stop-color="#070707"/>
<stop offset="1"/>
</radialGradient>
<radialGradient id="paint3_radial_43_538" cx="0" cy="0" r="1" gradientUnits="userSpaceOnUse" gradientTransform="translate(101.734 157.512) rotate(51.99) scale(37.9896 37.9896)">
<stop offset="0.2" stop-color="#272727"/>
<stop offset="0.48" stop-color="#232323"/>
<stop offset="0.71" stop-color="#191919"/>
<stop offset="0.93" stop-color="#070707"/>
<stop offset="1"/>
</radialGradient>
<radialGradient id="paint4_radial_43_538" cx="0" cy="0" r="1" gradientUnits="userSpaceOnUse" gradientTransform="translate(28.8617 54.0145) rotate(51.99) scale(25.1286)">
<stop offset="0.2" stop-color="#272727"/>
<stop offset="0.48" stop-color="#232323"/>
<stop offset="0.71" stop-color="#191919"/>
<stop offset="0.93" stop-color="#070707"/>
<stop offset="1"/>
</radialGradient>
<radialGradient id="paint5_radial_43_538" cx="0" cy="0" r="1" gradientUnits="userSpaceOnUse" gradientTransform="translate(222.554 92.8543) rotate(51.99) scale(24.8612)">
<stop offset="0.2" stop-color="#272727"/>
<stop offset="0.48" stop-color="#232323"/>
<stop offset="0.71" stop-color="#191919"/>
<stop offset="0.93" stop-color="#070707"/>
<stop offset="1"/>
</radialGradient>
<linearGradient id="paint6_linear_43_538" x1="130.541" y1="-4.54271" x2="117.933" y2="149.079" gradientUnits="userSpaceOnUse">
<stop stop-color="#5A4737"/>
<stop offset="0.25" stop-color="#A89252"/>
<stop offset="0.46" stop-color="#F7F298"/>
<stop offset="0.64" stop-color="#A89252"/>
<stop offset="0.65" stop-color="#9D874E"/>
<stop offset="0.7" stop-color="#7C6843"/>
<stop offset="0.74" stop-color="#68543C"/>
<stop offset="0.77" stop-color="#614E3A"/>
<stop offset="0.8" stop-color="#6A573D"/>
<stop offset="0.84" stop-color="#846F45"/>
<stop offset="0.9" stop-color="#A89252"/>
<stop offset="1" stop-color="#CCB06F"/>
</linearGradient>
<radialGradient id="paint7_radial_43_538" cx="0" cy="0" r="1" gradientUnits="userSpaceOnUse" gradientTransform="translate(123.024 82.4106) rotate(51.99) scale(97.7151)">
<stop offset="0.2" stop-color="#272727"/>
<stop offset="0.48" stop-color="#232323"/>
<stop offset="0.71" stop-color="#191919"/>
<stop offset="0.93" stop-color="#070707"/>
<stop offset="1"/>
</radialGradient>
<linearGradient id="paint8_linear_43_538" x1="134.268" y1="107.212" x2="70.319" y2="85.5898" gradientUnits="userSpaceOnUse">
<stop stop-color="#5A4737"/>
<stop offset="0.25" stop-color="#A89252"/>
<stop offset="0.42" stop-color="#A89252"/>
<stop offset="0.45" stop-color="#9D874E"/>
<stop offset="0.58" stop-color="#7C6843"/>
<stop offset="0.69" stop-color="#68543C"/>
<stop offset="0.77" stop-color="#614E3A"/>
<stop offset="0.8" stop-color="#6A573D"/>
<stop offset="0.84" stop-color="#846F45"/>
<stop offset="0.9" stop-color="#A89252"/>
<stop offset="1" stop-color="#CCB06F"/>
</linearGradient>
<linearGradient id="paint9_linear_43_538" x1="133.45" y1="121.65" x2="136.594" y2="96.0077" gradientUnits="userSpaceOnUse">
<stop stop-color="#5A4737"/>
<stop offset="0.25" stop-color="#A89252"/>
<stop offset="0.42" stop-color="#A89252"/>
<stop offset="0.45" stop-color="#9D874E"/>
<stop offset="0.58" stop-color="#7C6843"/>
<stop offset="0.69" stop-color="#68543C"/>
<stop offset="0.77" stop-color="#614E3A"/>
<stop offset="0.8" stop-color="#6A573D"/>
<stop offset="0.84" stop-color="#846F45"/>
<stop offset="0.9" stop-color="#A89252"/>
<stop offset="1" stop-color="#CCB06F"/>
</linearGradient>
<linearGradient id="paint10_linear_43_538" x1="171.258" y1="107.872" x2="125.377" y2="116.844" gradientUnits="userSpaceOnUse">
<stop stop-color="#5A4737"/>
<stop offset="0.25" stop-color="#A89252"/>
<stop offset="0.42" stop-color="#A89252"/>
<stop offset="0.45" stop-color="#9D874E"/>
<stop offset="0.58" stop-color="#7C6843"/>
<stop offset="0.69" stop-color="#68543C"/>
<stop offset="0.77" stop-color="#614E3A"/>
<stop offset="0.8" stop-color="#6A573D"/>
<stop offset="0.84" stop-color="#846F45"/>
<stop offset="0.9" stop-color="#A89252"/>
<stop offset="1" stop-color="#CCB06F"/>
</linearGradient>
<linearGradient id="paint11_linear_43_538" x1="158.777" y1="84.3977" x2="174.231" y2="104.17" gradientUnits="userSpaceOnUse">
<stop stop-color="#5A4737"/>
<stop offset="0.25" stop-color="#A89252"/>
<stop offset="0.42" stop-color="#A89252"/>
<stop offset="0.45" stop-color="#9D874E"/>
<stop offset="0.58" stop-color="#7C6843"/>
<stop offset="0.69" stop-color="#68543C"/>
<stop offset="0.77" stop-color="#614E3A"/>
<stop offset="0.8" stop-color="#6A573D"/>
<stop offset="0.84" stop-color="#846F45"/>
<stop offset="0.9" stop-color="#A89252"/>
<stop offset="1" stop-color="#CCB06F"/>
</linearGradient>
<linearGradient id="paint12_linear_43_538" x1="74.5107" y1="101.172" x2="178.808" y2="45.0792" gradientUnits="userSpaceOnUse">
<stop stop-color="#A89252"/>
<stop offset="0.27" stop-color="#F7F298"/>
<stop offset="0.59" stop-color="#A89252"/>
<stop offset="0.62" stop-color="#9D874E"/>
<stop offset="0.72" stop-color="#7C6843"/>
<stop offset="0.8" stop-color="#68543C"/>
<stop offset="0.85" stop-color="#614E3A"/>
<stop offset="0.89" stop-color="#6A573D"/>
<stop offset="0.94" stop-color="#846F45"/>
<stop offset="1" stop-color="#A89252"/>
</linearGradient>
</defs>
</svg>
