<svg width="271" height="293" viewBox="0 0 271 293" fill="none" xmlns="http://www.w3.org/2000/svg">
<g filter="url(#filter0_f_43_557)">
<path d="M219.155 182.608C215.364 188.97 211.043 195.243 206.224 201.366C196.906 213.187 186.547 223.326 175.721 231.605C143.564 256.157 107.283 264.232 82.0034 250.72C60.3835 242.223 45.6048 224.171 45.6048 224.171L54.7422 211.868C48.6349 181.807 59.8592 141.942 87.0756 107.434C112.031 75.787 144.486 56.1418 173.36 52.2714L182.713 39.6854C197.056 43.0601 218.757 62.9416 218.757 62.9416C247.68 85.7356 246.847 136.376 219.167 182.605L219.155 182.608Z" fill="url(#paint0_linear_43_557)"/>
<path d="M183.702 185.736C148.335 230.602 97.8774 251.33 63.9784 237.24C59.7056 235.454 55.7056 233.132 52.0278 230.233C41.3292 221.798 34.6946 209.552 32.0041 195.124C26.8186 167.474 36.0678 131.811 58.6897 99.6631C60.55 97.0254 62.4999 94.3969 64.5423 91.8078C71.4645 83.0328 78.9619 75.1743 86.8046 68.3285C110.371 47.7359 137.013 36.2121 160.291 35.9597C173.822 35.7999 186.216 39.4517 196.22 47.3227C200.744 50.8931 204.543 55.14 207.62 59.9513C226.932 90.0964 218.03 142.184 183.698 185.744L183.702 185.736Z" fill="url(#paint1_linear_43_557)"/>
<path d="M97.9994 80.594L72.7805 107.843L58.6973 99.667C60.5428 97.0215 62.5001 94.3969 64.5425 91.8078C71.4647 83.0327 78.9621 75.1743 86.8048 68.3285L97.9955 80.6014L97.9994 80.594Z" fill="url(#paint2_radial_43_557)"/>
<path d="M219.155 182.608C215.364 188.97 211.043 195.242 206.224 201.366C196.906 213.187 186.547 223.326 175.721 231.605L155.164 214.449L142.112 196.561C142.112 196.561 143.465 175.902 147.944 171.357C152.42 166.8 167.725 158.262 167.725 158.262L177.181 156.552L197.951 164.744L219.144 182.612L219.155 182.608Z" fill="url(#paint3_radial_43_557)"/>
<path d="M77.9529 215.046C77.9529 215.046 64.6899 237.539 63.9823 237.232C59.7095 235.446 55.7095 233.124 52.0317 230.225C41.3331 221.791 34.6985 209.545 32.008 195.116L51.2753 181.025L77.9494 215.035L77.9529 215.046Z" fill="url(#paint4_radial_43_557)"/>
<path d="M207.624 59.9439L185.845 73.8751C185.845 73.8751 168.588 83.6987 168.57 81.8294C168.546 79.9561 154.079 58.027 154.079 58.027L160.295 35.9522C173.826 35.7925 186.22 39.4443 196.224 47.3153C200.748 50.8857 204.547 55.1326 207.624 59.9439Z" fill="url(#paint5_radial_43_557)"/>
<path d="M177.591 66.2461C152.972 46.841 108.043 62.7916 77.2379 101.873C46.4333 140.954 41.4185 188.366 66.0372 207.771C90.6559 227.176 135.585 211.226 166.39 172.145C197.195 133.064 202.21 85.6512 177.591 66.2461Z" fill="url(#paint6_linear_43_557)"/>
<path d="M180.519 68.5525C157.52 50.4246 113.904 67.4104 83.0994 106.492C52.2947 145.573 45.9665 191.95 68.965 210.078C91.9635 228.206 135.58 211.22 166.384 172.139C197.189 133.058 203.517 86.6805 180.519 68.5525Z" fill="url(#paint7_radial_43_557)"/>
<path d="M115.579 183.834C116.404 184.042 117.244 184.116 118.091 184.014C126.943 182.912 135.845 179.938 142.54 173.839C149.089 167.87 155.047 156.208 153.391 147.064L141.922 135.41C141.922 135.41 120.577 146.756 119.533 147.878C118.49 149 100.179 174.767 100.179 174.767C102.549 176.222 104.911 177.673 107.281 179.127C109.802 180.671 112.607 183.092 115.579 183.834Z" fill="url(#paint8_linear_43_557)"/>
<path d="M157.599 137.56L166.492 145.318L153.391 147.064L141.922 135.41L157.599 137.56Z" fill="url(#paint9_linear_43_557)"/>
<path d="M160.641 112.993L169.919 119.425L166.492 145.318L157.599 137.56L160.641 112.993Z" fill="url(#paint10_linear_43_557)"/>
<path d="M145.806 94.7795C145.806 94.7795 160.85 102.187 157.099 114.179C157.099 114.179 152.257 120.13 148.687 121.084C145.116 122.038 135.122 118.544 135.269 117.583C135.416 116.622 145.806 94.7795 145.806 94.7795Z" fill="url(#paint11_linear_43_557)"/>
<path d="M75.8825 144.548C75.8825 144.548 101.362 111.241 117.409 99.912C117.409 99.912 134.197 87.518 145.806 94.7794C145.806 94.7794 155.8 103.476 147.696 117.314L160.641 112.993L157.595 137.567L143.677 138.212C143.677 138.212 149.557 158.673 126.014 171.667C121.688 174.055 118.112 176.489 112.968 177.078C103.114 178.2 94.9371 172.329 89.015 165.01C87.2401 162.82 74.3382 146.55 75.8751 144.544L75.8825 144.548Z" fill="url(#paint12_linear_43_557)"/>
</g>
<defs>
<filter id="filter0_f_43_557" x="20.6008" y="25.9472" width="229.587" height="241.282" filterUnits="userSpaceOnUse" color-interpolation-filters="sRGB">
<feFlood flood-opacity="0" result="BackgroundImageFix"/>
<feBlend mode="normal" in="SourceGraphic" in2="BackgroundImageFix" result="shape"/>
<feGaussianBlur stdDeviation="5" result="effect1_foregroundBlur_43_557"/>
</filter>
<linearGradient id="paint0_linear_43_557" x1="35.7129" y1="168.956" x2="244.863" y2="131.121" gradientUnits="userSpaceOnUse">
<stop stop-color="#5A4737"/>
<stop offset="0.25" stop-color="#A89252"/>
<stop offset="0.46" stop-color="#F7F298"/>
<stop offset="0.64" stop-color="#A89252"/>
<stop offset="0.65" stop-color="#9D874E"/>
<stop offset="0.7" stop-color="#7C6843"/>
<stop offset="0.74" stop-color="#68543C"/>
<stop offset="0.77" stop-color="#614E3A"/>
<stop offset="0.8" stop-color="#6A573D"/>
<stop offset="0.84" stop-color="#846F45"/>
<stop offset="0.9" stop-color="#A89252"/>
<stop offset="1" stop-color="#CCB06F"/>
</linearGradient>
<linearGradient id="paint1_linear_43_557" x1="25.1176" y1="156.58" x2="223.281" y2="120.732" gradientUnits="userSpaceOnUse">
<stop stop-color="#5A4737"/>
<stop offset="0.25" stop-color="#A89252"/>
<stop offset="0.46" stop-color="#F7F298"/>
<stop offset="0.64" stop-color="#A89252"/>
<stop offset="0.65" stop-color="#9D874E"/>
<stop offset="0.7" stop-color="#7C6843"/>
<stop offset="0.74" stop-color="#68543C"/>
<stop offset="0.77" stop-color="#614E3A"/>
<stop offset="0.8" stop-color="#6A573D"/>
<stop offset="0.84" stop-color="#846F45"/>
<stop offset="0.9" stop-color="#A89252"/>
<stop offset="1" stop-color="#CCB06F"/>
</linearGradient>
<radialGradient id="paint2_radial_43_557" cx="0" cy="0" r="1" gradientUnits="userSpaceOnUse" gradientTransform="translate(78.094 88.2805) rotate(-10.2539) scale(19.6717)">
<stop offset="0.2" stop-color="#272727"/>
<stop offset="0.48" stop-color="#232323"/>
<stop offset="0.71" stop-color="#191919"/>
<stop offset="0.93" stop-color="#070707"/>
<stop offset="1"/>
</radialGradient>
<radialGradient id="paint3_radial_43_557" cx="0" cy="0" r="1" gradientUnits="userSpaceOnUse" gradientTransform="translate(181.364 193.078) rotate(-10.2539) scale(37.9896 37.9896)">
<stop offset="0.2" stop-color="#272727"/>
<stop offset="0.48" stop-color="#232323"/>
<stop offset="0.71" stop-color="#191919"/>
<stop offset="0.93" stop-color="#070707"/>
<stop offset="1"/>
</radialGradient>
<radialGradient id="paint4_radial_43_557" cx="0" cy="0" r="1" gradientUnits="userSpaceOnUse" gradientTransform="translate(55.8379 209.365) rotate(-10.2539) scale(25.1286)">
<stop offset="0.2" stop-color="#272727"/>
<stop offset="0.48" stop-color="#232323"/>
<stop offset="0.71" stop-color="#191919"/>
<stop offset="0.93" stop-color="#070707"/>
<stop offset="1"/>
</radialGradient>
<radialGradient id="paint5_radial_43_557" cx="0" cy="0" r="1" gradientUnits="userSpaceOnUse" gradientTransform="translate(180.413 56.0473) rotate(-10.2539) scale(24.8612)">
<stop offset="0.2" stop-color="#272727"/>
<stop offset="0.48" stop-color="#232323"/>
<stop offset="0.71" stop-color="#191919"/>
<stop offset="0.93" stop-color="#070707"/>
<stop offset="1"/>
</radialGradient>
<linearGradient id="paint6_linear_43_557" x1="51.3711" y1="92.1152" x2="181.445" y2="174.815" gradientUnits="userSpaceOnUse">
<stop stop-color="#5A4737"/>
<stop offset="0.25" stop-color="#A89252"/>
<stop offset="0.46" stop-color="#F7F298"/>
<stop offset="0.64" stop-color="#A89252"/>
<stop offset="0.65" stop-color="#9D874E"/>
<stop offset="0.7" stop-color="#7C6843"/>
<stop offset="0.74" stop-color="#68543C"/>
<stop offset="0.77" stop-color="#614E3A"/>
<stop offset="0.8" stop-color="#6A573D"/>
<stop offset="0.84" stop-color="#846F45"/>
<stop offset="0.9" stop-color="#A89252"/>
<stop offset="1" stop-color="#CCB06F"/>
</linearGradient>
<radialGradient id="paint7_radial_43_557" cx="0" cy="0" r="1" gradientUnits="userSpaceOnUse" gradientTransform="translate(124.819 139.261) rotate(-10.2539) scale(97.7151)">
<stop offset="0.2" stop-color="#272727"/>
<stop offset="0.48" stop-color="#232323"/>
<stop offset="0.71" stop-color="#191919"/>
<stop offset="0.93" stop-color="#070707"/>
<stop offset="1"/>
</radialGradient>
<linearGradient id="paint8_linear_43_557" x1="152.003" y1="140.862" x2="103.087" y2="187.383" gradientUnits="userSpaceOnUse">
<stop stop-color="#5A4737"/>
<stop offset="0.25" stop-color="#A89252"/>
<stop offset="0.42" stop-color="#A89252"/>
<stop offset="0.45" stop-color="#9D874E"/>
<stop offset="0.58" stop-color="#7C6843"/>
<stop offset="0.69" stop-color="#68543C"/>
<stop offset="0.77" stop-color="#614E3A"/>
<stop offset="0.8" stop-color="#6A573D"/>
<stop offset="0.84" stop-color="#846F45"/>
<stop offset="0.9" stop-color="#A89252"/>
<stop offset="1" stop-color="#CCB06F"/>
</linearGradient>
<linearGradient id="paint9_linear_43_557" x1="164.399" y1="148.309" x2="143.171" y2="133.585" gradientUnits="userSpaceOnUse">
<stop stop-color="#5A4737"/>
<stop offset="0.25" stop-color="#A89252"/>
<stop offset="0.42" stop-color="#A89252"/>
<stop offset="0.45" stop-color="#9D874E"/>
<stop offset="0.58" stop-color="#7C6843"/>
<stop offset="0.69" stop-color="#68543C"/>
<stop offset="0.77" stop-color="#614E3A"/>
<stop offset="0.8" stop-color="#6A573D"/>
<stop offset="0.84" stop-color="#846F45"/>
<stop offset="0.9" stop-color="#A89252"/>
<stop offset="1" stop-color="#CCB06F"/>
</linearGradient>
<linearGradient id="paint10_linear_43_557" x1="169.814" y1="108.435" x2="156.387" y2="153.215" gradientUnits="userSpaceOnUse">
<stop stop-color="#5A4737"/>
<stop offset="0.25" stop-color="#A89252"/>
<stop offset="0.42" stop-color="#A89252"/>
<stop offset="0.45" stop-color="#9D874E"/>
<stop offset="0.58" stop-color="#7C6843"/>
<stop offset="0.69" stop-color="#68543C"/>
<stop offset="0.77" stop-color="#614E3A"/>
<stop offset="0.8" stop-color="#6A573D"/>
<stop offset="0.84" stop-color="#846F45"/>
<stop offset="0.9" stop-color="#A89252"/>
<stop offset="1" stop-color="#CCB06F"/>
</linearGradient>
<linearGradient id="paint11_linear_43_557" x1="143.228" y1="108.548" x2="167.922" y2="104.081" gradientUnits="userSpaceOnUse">
<stop stop-color="#5A4737"/>
<stop offset="0.25" stop-color="#A89252"/>
<stop offset="0.42" stop-color="#A89252"/>
<stop offset="0.45" stop-color="#9D874E"/>
<stop offset="0.58" stop-color="#7C6843"/>
<stop offset="0.69" stop-color="#68543C"/>
<stop offset="0.77" stop-color="#614E3A"/>
<stop offset="0.8" stop-color="#6A573D"/>
<stop offset="0.84" stop-color="#846F45"/>
<stop offset="0.9" stop-color="#A89252"/>
<stop offset="1" stop-color="#CCB06F"/>
</linearGradient>
<linearGradient id="paint12_linear_43_557" x1="118.828" y1="190.93" x2="117.762" y2="72.5102" gradientUnits="userSpaceOnUse">
<stop stop-color="#A89252"/>
<stop offset="0.27" stop-color="#F7F298"/>
<stop offset="0.59" stop-color="#A89252"/>
<stop offset="0.62" stop-color="#9D874E"/>
<stop offset="0.72" stop-color="#7C6843"/>
<stop offset="0.8" stop-color="#68543C"/>
<stop offset="0.85" stop-color="#614E3A"/>
<stop offset="0.89" stop-color="#6A573D"/>
<stop offset="0.94" stop-color="#846F45"/>
<stop offset="1" stop-color="#A89252"/>
</linearGradient>
</defs>
</svg>
