<svg width="1087" height="291" viewBox="0 0 1087 291" fill="none" xmlns="http://www.w3.org/2000/svg">
<path d="M0.03125 290.909V0H209.69V63.6364H79.0085V113.636H198.895V177.273H79.0085V227.273H209.122V290.909H0.03125Z" fill="#0C0C0C"/>
<path d="M324.428 290.909H239.2L335.223 0H443.178L539.2 290.909H453.973L390.337 80.1136H388.064L324.428 290.909ZM308.518 176.136H468.746V235.227H308.518V176.136Z" fill="#0C0C0C"/>
<path d="M567.219 290.909V0H692.787C714.378 0 733.27 3.92992 749.463 11.7898C765.656 19.6496 778.251 30.9659 787.247 45.7386C796.243 60.5114 800.741 78.2197 800.741 98.8636C800.741 119.697 796.101 137.263 786.821 151.562C777.635 165.862 764.709 176.657 748.043 183.949C731.471 191.241 712.105 194.886 689.946 194.886H614.946V133.523H674.037C683.317 133.523 691.224 132.386 697.759 130.114C704.387 127.746 709.454 124.006 712.957 118.892C716.556 113.778 718.355 107.102 718.355 98.8636C718.355 90.5303 716.556 83.7595 712.957 78.5511C709.454 73.2481 704.387 69.3655 697.759 66.9034C691.224 64.3466 683.317 63.0682 674.037 63.0682H646.196V290.909H567.219ZM737.673 157.386L810.401 290.909H724.605L653.582 157.386H737.673Z" fill="#0C0C0C"/>
<path d="M1086.11 0V290.909H1020.2L915.088 138.068H913.384V290.909H834.406V0H901.452L1004.86 152.273H1007.13V0H1086.11Z" fill="#0C0C0C"/>
</svg>
