<svg width="786" height="317" viewBox="0 0 786 317" fill="none" xmlns="http://www.w3.org/2000/svg">
<path d="M0.898438 294.886V3.97727H205.444V67.6136H79.8757V117.614H192.944V181.25H79.8757V294.886H0.898438Z" fill="#0C0C0C"/>
<path d="M273.732 294.886H188.505L284.528 3.97727H392.482L488.505 294.886H403.278L339.641 84.0909H337.369L273.732 294.886ZM257.823 180.114H418.05V239.205H257.823V180.114Z" fill="#0C0C0C"/>
<path d="M615.352 186.932H676.715L698.874 214.773L736.374 257.386L785.238 316.477H715.352L680.693 276.136L657.397 242.614L615.352 186.932ZM784.67 149.432C784.67 181.818 778.372 209.138 765.778 231.392C753.183 253.551 736.185 270.36 714.783 281.818C693.382 293.182 669.518 298.864 643.193 298.864C616.677 298.864 592.719 293.134 571.318 281.676C550.011 270.123 533.06 253.267 520.465 231.108C507.965 208.854 501.715 181.629 501.715 149.432C501.715 117.045 507.965 89.7727 520.465 67.6136C533.06 45.3598 550.011 28.5511 571.318 17.1875C592.719 5.72917 616.677 0 643.193 0C669.518 0 693.382 5.72917 714.783 17.1875C736.185 28.5511 753.183 45.3598 765.778 67.6136C778.372 89.7727 784.67 117.045 784.67 149.432ZM703.42 149.432C703.42 132.008 701.1 117.33 696.46 105.398C691.914 93.3712 685.143 84.2803 676.147 78.125C667.246 71.875 656.261 68.75 643.193 68.75C630.124 68.75 619.092 71.875 610.096 78.125C601.194 84.2803 594.424 93.3712 589.783 105.398C585.238 117.33 582.965 132.008 582.965 149.432C582.965 166.856 585.238 181.581 589.783 193.608C594.424 205.54 601.194 214.631 610.096 220.881C619.092 227.036 630.124 230.114 643.193 230.114C656.261 230.114 667.246 227.036 676.147 220.881C685.143 214.631 691.914 205.54 696.46 193.608C701.1 181.581 703.42 166.856 703.42 149.432Z" fill="#0C0C0C"/>
</svg>
