<svg width="1479" height="299" viewBox="0 0 1479 299" fill="none" xmlns="http://www.w3.org/2000/svg">
<path d="M191.045 100C189.814 94.9811 187.873 90.5777 185.222 86.7898C182.57 82.9072 179.256 79.6402 175.278 76.9886C171.396 74.2424 166.85 72.2064 161.642 70.8807C156.528 69.4602 150.894 68.75 144.739 68.75C131.481 68.75 120.165 71.9223 110.79 78.2671C101.509 84.6118 94.4072 93.75 89.483 105.682C84.6534 117.614 82.2386 132.008 82.2386 148.864C82.2386 165.909 84.5587 180.492 89.1989 192.614C93.839 204.735 100.752 214.015 109.938 220.455C119.123 226.894 130.534 230.114 144.17 230.114C156.197 230.114 166.188 228.362 174.142 224.858C182.191 221.354 188.205 216.383 192.182 209.943C196.159 203.504 198.148 195.928 198.148 187.216L211.784 188.636H145.307V132.386H274.284V172.727C274.284 199.242 268.65 221.922 257.381 240.767C246.206 259.517 230.771 273.911 211.074 283.949C191.472 293.892 168.981 298.864 143.602 298.864C115.288 298.864 90.4299 292.85 69.0284 280.824C47.6269 268.797 30.9129 251.657 18.8864 229.403C6.95456 207.15 0.988647 180.682 0.988647 150C0.988647 125.947 4.63448 104.64 11.9261 86.0796C19.3125 67.519 29.5398 51.8466 42.608 39.0625C55.6762 26.1837 70.7803 16.4773 87.9205 9.94318C105.061 3.31439 123.432 0 143.034 0C160.269 0 176.273 2.46212 191.045 7.38637C205.913 12.2159 219.028 19.1288 230.392 28.125C241.85 37.0265 251.083 47.5852 258.091 59.8011C265.099 72.017 269.36 85.4167 270.875 100H191.045Z" fill="#0C0C0C"/>
<path d="M377.693 294.886H292.466L388.489 3.97727H496.443L592.466 294.886H507.239L443.602 84.0909H441.33L377.693 294.886ZM361.784 180.114H522.011V239.205H361.784V180.114Z" fill="#0C0C0C"/>
<path d="M620.484 3.97727H718.78L786.393 168.75H789.803L857.416 3.97727H955.712V294.886H878.439V126.705H876.166L811.393 292.614H764.803L700.03 125.568H697.757V294.886H620.484V3.97727Z" fill="#0C0C0C"/>
<path d="M993.141 294.886V3.97727H1202.8V67.6136H1072.12V117.614H1192V181.25H1072.12V231.25H1202.23V294.886H993.141Z" fill="#0C0C0C"/>
<path d="M1398.79 94.8864C1398.03 85.4167 1394.48 78.0303 1388.13 72.7273C1381.88 67.4242 1372.37 64.7727 1359.58 64.7727C1351.44 64.7727 1344.76 65.767 1339.55 67.7557C1334.44 69.6496 1330.65 72.2538 1328.19 75.5682C1325.73 78.8826 1324.45 82.6705 1324.36 86.9318C1324.17 90.4356 1324.78 93.608 1326.2 96.4489C1327.72 99.1951 1330.08 101.705 1333.3 103.977C1336.52 106.155 1340.64 108.144 1345.66 109.943C1350.68 111.742 1356.65 113.352 1363.56 114.773L1387.42 119.886C1403.52 123.295 1417.3 127.794 1428.76 133.381C1440.22 138.968 1449.59 145.549 1456.88 153.125C1464.18 160.606 1469.53 169.034 1472.93 178.409C1476.44 187.784 1478.24 198.011 1478.33 209.091C1478.24 228.22 1473.46 244.413 1463.99 257.67C1454.52 270.928 1440.97 281.013 1423.36 287.926C1405.84 294.839 1384.77 298.295 1360.15 298.295C1334.87 298.295 1312.8 294.555 1293.96 287.074C1275.21 279.593 1260.62 268.087 1250.21 252.557C1239.89 236.932 1234.68 216.951 1234.58 192.614H1309.58C1310.06 201.515 1312.28 208.996 1316.26 215.057C1320.24 221.117 1325.82 225.71 1333.02 228.835C1340.31 231.96 1348.98 233.523 1359.01 233.523C1367.44 233.523 1374.5 232.481 1380.18 230.398C1385.86 228.314 1390.17 225.426 1393.11 221.733C1396.04 218.04 1397.56 213.826 1397.65 209.091C1397.56 204.64 1396.09 200.758 1393.25 197.443C1390.5 194.034 1385.96 191.004 1379.61 188.352C1373.27 185.606 1364.7 183.049 1353.9 180.682L1324.92 174.432C1299.17 168.845 1278.85 159.517 1263.99 146.449C1249.21 133.286 1241.87 115.341 1241.97 92.6136C1241.87 74.1477 1246.8 58.0019 1256.74 44.1761C1266.78 30.2557 1280.65 19.4129 1298.36 11.6477C1316.16 3.88258 1336.57 0 1359.58 0C1383.07 0 1403.38 3.92992 1420.52 11.7898C1437.66 19.6496 1450.87 30.7292 1460.15 45.0284C1469.53 59.233 1474.26 75.8523 1474.36 94.8864H1398.79Z" fill="#0C0C0C"/>
</svg>
