<svg width="1092" height="300" viewBox="0 0 1092 300" fill="none" xmlns="http://www.w3.org/2000/svg">
<path d="M85.9261 295.796L0.130615 4.88645H88.1988L127.972 183.864H130.244L177.403 4.88645H246.722L293.881 184.432H296.153L335.926 4.88645H423.994L338.199 295.796H262.631L213.199 133.296H210.926L161.494 295.796H85.9261Z" fill="#0C0C0C"/>
<path d="M528.54 4.88645V295.796H449.562V4.88645H528.54Z" fill="#0C0C0C"/>
<path d="M817.673 4.88645V295.796H751.764L646.651 142.955H644.946V295.796H565.969V4.88645H633.014L736.423 157.159H738.696V4.88645H817.673Z" fill="#0C0C0C"/>
<path d="M1011.85 95.7956C1011.09 86.3259 1007.54 78.9395 1001.2 73.6365C994.946 68.3334 985.429 65.6819 972.645 65.6819C964.501 65.6819 957.825 66.6762 952.616 68.6649C947.503 70.5588 943.715 73.163 941.253 76.4774C938.791 79.7918 937.512 83.5796 937.418 87.841C937.228 91.3448 937.844 94.5171 939.264 97.3581C940.779 100.104 943.147 102.614 946.366 104.886C949.586 107.064 953.705 109.053 958.724 110.852C963.743 112.652 969.709 114.261 976.622 115.682L1000.49 120.796C1016.58 124.205 1030.36 128.703 1041.82 134.29C1053.28 139.877 1062.65 146.458 1069.95 154.034C1077.24 161.515 1082.59 169.943 1086 179.318C1089.5 188.693 1091.3 198.921 1091.39 210C1091.3 229.129 1086.52 245.322 1077.05 258.58C1067.58 271.837 1054.04 281.922 1036.42 288.835C1018.9 295.748 997.834 299.205 973.213 299.205C947.929 299.205 925.865 295.464 907.02 287.983C888.27 280.502 873.687 268.996 863.27 253.466C852.948 237.841 847.74 217.86 847.645 193.523H922.645C923.118 202.424 925.344 209.905 929.321 215.966C933.298 222.027 938.885 226.619 946.082 229.744C953.374 232.869 962.039 234.432 972.077 234.432C980.505 234.432 987.56 233.39 993.241 231.307C998.923 229.224 1003.23 226.335 1006.17 222.642C1009.1 218.949 1010.62 214.735 1010.71 210C1010.62 205.549 1009.15 201.667 1006.31 198.352C1003.56 194.943 999.018 191.913 992.673 189.261C986.328 186.515 977.758 183.958 966.963 181.591L937.986 175.341C912.228 169.754 891.916 160.426 877.048 147.358C862.276 134.195 854.936 116.25 855.031 93.5228C854.936 75.0569 859.861 58.9111 869.804 45.0853C879.842 31.1649 893.715 20.3221 911.423 12.5569C929.226 4.79175 949.633 0.90918 972.645 0.90918C996.13 0.90918 1016.44 4.8391 1033.58 12.699C1050.72 20.5588 1063.93 31.6384 1073.21 45.9376C1082.59 60.1421 1087.32 76.7615 1087.42 95.7956H1011.85Z" fill="#0C0C0C"/>
</svg>
