<svg width="66" height="67" viewBox="0 0 66 67" fill="none" xmlns="http://www.w3.org/2000/svg">
<path opacity="0.4" d="M27.4725 50.3541C39.6076 50.3541 49.445 40.5166 49.445 28.3816C49.445 16.2465 39.6076 6.40906 27.4725 6.40906C15.3374 6.40906 5.5 16.2465 5.5 28.3816C5.5 40.5166 15.3374 50.3541 27.4725 50.3541Z" fill="#EA9D0D"/>
<path d="M60.4175 44.8815C60.4175 53.9565 53.0475 61.3265 43.9725 61.3265C38.3625 61.3265 33.44 58.5215 30.47 54.259C42.46 52.9115 52.0025 43.369 53.35 31.379C57.6125 34.349 60.4175 39.2715 60.4175 44.8815Z" fill="#EA9D0D"/>
<path d="M31.4875 27.6115L24.8875 25.3015C24.2275 25.0815 24.09 25.0265 24.09 24.064C24.09 23.349 24.585 22.7715 25.2175 22.7715H29.3425C30.2225 22.7715 30.9375 23.569 30.9375 24.559C30.9375 25.6865 31.8725 26.6215 33 26.6215C34.1275 26.6215 35.0625 25.6865 35.0625 24.559C35.0625 21.3965 32.615 18.8115 29.5625 18.674V18.5365C29.5625 17.409 28.6275 16.474 27.5 16.474C26.3725 16.474 25.4375 17.3815 25.4375 18.5365V18.674H25.19C22.3025 18.674 19.9375 21.094 19.9375 24.0915C19.9375 26.704 21.0925 28.3815 23.485 29.2065L30.1125 31.5165C30.7725 31.7365 30.91 31.7915 30.91 32.754C30.91 33.469 30.415 34.0465 29.7825 34.0465H25.6575C24.7775 34.0465 24.0625 33.249 24.0625 32.259C24.0625 31.1315 23.1275 30.1965 22 30.1965C20.8725 30.1965 19.9375 31.1315 19.9375 32.259C19.9375 35.4215 22.385 38.0065 25.4375 38.144V38.309C25.4375 39.4365 26.3725 40.3715 27.5 40.3715C28.6275 40.3715 29.5625 39.4365 29.5625 38.309V38.1715H29.81C32.6975 38.1715 35.0625 35.7515 35.0625 32.754C35.0625 30.1415 33.88 28.464 31.4875 27.6115Z" fill="#EA9D0D"/>
</svg>
