<svg width="66" height="67" viewBox="0 0 66 67" fill="none" xmlns="http://www.w3.org/2000/svg">
<path d="M45.7875 16.639H20.2125C12.1 16.639 5.5 23.239 5.5 31.3515V46.6965C5.5 54.809 12.1 61.409 20.2125 61.409H45.7875C53.9 61.409 60.5 54.809 60.5 46.6965V31.3515C60.5 23.239 53.9 16.639 45.7875 16.639ZM39.875 33.964C39.875 32.4515 41.1125 31.214 42.625 31.214C44.1375 31.214 45.375 32.4515 45.375 33.964C45.375 35.4765 44.1375 36.7415 42.625 36.7415C41.1125 36.7415 39.875 35.5315 39.875 34.019V33.964ZM27.8575 45.1015C27.445 45.514 26.9225 45.7065 26.4 45.7065C25.8775 45.7065 25.355 45.514 24.9425 45.1015L22.11 42.269L19.3875 44.9915C18.975 45.404 18.4525 45.5965 17.93 45.5965C17.4075 45.5965 16.885 45.404 16.4725 44.9915C15.675 44.194 15.675 42.874 16.4725 42.0765L19.195 39.354L16.555 36.714C15.7575 35.9165 15.7575 34.5965 16.555 33.799C17.3525 33.0015 18.6725 33.0015 19.47 33.799L22.11 36.439L24.8325 33.7165C25.63 32.919 26.95 32.919 27.7475 33.7165C28.545 34.514 28.545 35.834 27.7475 36.6315L25.025 39.354L27.8575 42.1865C28.655 42.984 28.655 44.304 27.8575 45.1015ZM37.235 42.159C35.7225 42.159 34.4575 40.9215 34.4575 39.409C34.4575 37.8965 35.6675 36.659 37.18 36.659H37.235C38.7475 36.659 39.985 37.8965 39.985 39.409C39.985 40.9215 38.775 42.159 37.235 42.159ZM42.625 47.5765C41.1125 47.5765 39.875 46.3665 39.875 44.854V44.799C39.875 43.2865 41.1125 42.049 42.625 42.049C44.1375 42.049 45.375 43.2865 45.375 44.799C45.375 46.3115 44.165 47.5765 42.625 47.5765ZM48.07 42.159C46.5575 42.159 45.2925 40.9215 45.2925 39.409C45.2925 37.8965 46.5025 36.659 48.015 36.659H48.07C49.5825 36.659 50.82 37.8965 50.82 39.409C50.82 40.9215 49.61 42.159 48.07 42.159Z" fill="#301D02"/>
<path d="M37.51 8.36156L37.4825 10.9466C37.455 13.3666 35.4475 15.3741 33 15.3741C32.5875 15.3741 32.34 15.6491 32.34 16.0066C32.34 16.3641 32.615 16.6391 32.9725 16.6391H28.545C28.5175 16.4466 28.49 16.2266 28.49 16.0066C28.49 13.5316 30.4975 11.5241 32.945 11.5241C33.3575 11.5241 33.6325 11.2491 33.6325 10.8916L33.66 8.30656C33.6875 7.26156 34.54 6.40906 35.585 6.40906H35.6125C36.685 6.40906 37.51 7.28906 37.51 8.36156Z" fill="#301D02"/>
</svg>
