<svg width="66" height="67" viewBox="0 0 66 67" fill="none" xmlns="http://www.w3.org/2000/svg">
<path opacity="0.4" d="M52.5524 21.4515L42.8724 11.7715C34.1824 3.10902 29.6174 6.29902 24.1174 11.7715L8.55239 27.3365C5.38989 30.499 3.65739 32.534 3.02489 34.789C3.02489 34.8165 2.99739 34.8165 2.99739 34.8165C2.99739 34.844 2.99739 34.844 2.99739 34.844C2.99739 34.8715 2.99739 34.8715 2.99739 34.8715V34.954C1.86989 38.969 4.83989 42.379 8.55239 46.0915L18.2599 55.744C21.7249 59.2365 24.5299 61.409 27.6374 61.409C30.7449 61.409 33.4124 59.319 36.9874 55.744L52.5524 40.2065C53.8999 38.8315 54.8899 37.704 55.6599 36.6315C55.6599 36.604 55.6599 36.604 55.6599 36.604C55.6599 36.604 55.6599 36.604 55.6874 36.604C59.2074 31.6815 58.2724 27.144 52.5524 21.4515ZM52.6624 28.189C53.8449 30.1965 51.9749 32.6715 49.6924 32.1765C48.8399 31.984 48.0149 31.819 47.1624 31.654C47.1074 31.654 47.0524 31.6265 46.9699 31.6265C45.0449 31.269 43.0924 30.9665 41.1124 30.719H41.0024C39.0224 30.4715 37.0149 30.279 35.0074 30.169H34.7874C33.0274 30.059 31.2399 30.004 29.4799 30.004C27.3349 30.004 25.1899 30.114 23.0724 30.2515C22.7149 30.279 22.3849 30.3065 22.0549 30.334C20.4599 30.444 18.8649 30.609 17.2974 30.8015C16.8574 30.8565 16.4449 30.9115 16.0324 30.9665C14.4374 31.214 12.8699 31.4615 11.3024 31.764C10.9449 31.8465 10.6149 31.9015 10.2574 31.9565C10.1199 31.984 9.95489 32.0115 9.81739 32.039C10.3124 31.489 10.8899 30.9115 11.5224 30.279L27.0599 14.7415C32.0649 9.79152 33.7699 8.60902 39.9299 14.7415L49.5824 24.4215C51.0674 25.879 52.0574 27.1165 52.6624 28.189Z" fill="#EA9D0D"/>
<path d="M52.6624 28.1891C53.8449 30.1966 51.9749 32.6716 49.6924 32.1766C48.8399 31.9841 48.0149 31.8191 47.1624 31.6541C47.1074 31.6541 47.0524 31.6266 46.9699 31.6266C45.0449 31.2691 43.0924 30.9666 41.1124 30.7191H41.0024C39.0224 30.4716 37.0149 30.2791 35.0074 30.1691H34.7874C33.0274 30.0591 31.2399 30.0041 29.4799 30.0041C27.3349 30.0041 25.1899 30.1141 23.0724 30.2516C22.7149 30.2791 22.3849 30.3066 22.0549 30.3341C20.4599 30.4441 18.8649 30.6091 17.2974 30.8016C16.8574 30.8566 16.4449 30.9116 16.0324 30.9666C14.4374 31.2141 12.8699 31.4616 11.3024 31.7641C10.9449 31.8466 10.6149 31.9016 10.2574 31.9566C10.1199 31.9841 9.95488 32.0116 9.81738 32.0391C10.3124 31.4891 10.8899 30.9116 11.5224 30.2791L27.0599 14.7416C32.0649 9.79155 33.7699 8.60905 39.9299 14.7416L49.5824 24.4216C51.0674 25.8791 52.0574 27.1166 52.6624 28.1891Z" fill="#EA9D0D"/>
<path d="M57.6124 47.3016C56.5674 46.0091 55.6599 44.9091 53.6249 44.9091C51.5899 44.9091 50.6824 46.0091 49.6649 47.3016C47.4649 50.0241 46.4749 52.9941 46.8324 55.8541C47.2449 59.1266 50.0499 61.4091 53.6249 61.4091C57.1999 61.4091 60.0049 59.1266 60.4174 55.8266C60.7749 52.9666 59.8124 50.0241 57.6124 47.3016Z" fill="#EA9D0D"/>
</svg>
